<?xml version="1.0" encoding="UTF-8" standalone="no"?>
<!-- Created with Inkscape (http://www.inkscape.org/) -->

<svg
   xmlns:dc="http://purl.org/dc/elements/1.1/"
   xmlns:cc="http://creativecommons.org/ns#"
   xmlns:rdf="http://www.w3.org/1999/02/22-rdf-syntax-ns#"
   xmlns:svg="http://www.w3.org/2000/svg"
   xmlns="http://www.w3.org/2000/svg"
   xmlns:sodipodi="http://sodipodi.sourceforge.net/DTD/sodipodi-0.dtd"
   xmlns:inkscape="http://www.inkscape.org/namespaces/inkscape"
   width="27.782999mm"
   height="10.974894mm"
   viewBox="0 0 98.443697 38.88742"
   id="svg2"
   version="1.1"
   inkscape:version="0.91 r13725"
   sodipodi:docname="arrow.svg">
  <defs
     id="defs4" />
  <sodipodi:namedview
     id="base"
     pagecolor="#ffffff"
     bordercolor="#666666"
     borderopacity="1.0"
     inkscape:pageopacity="0.0"
     inkscape:pageshadow="2"
     inkscape:zoom="1"
     inkscape:cx="97.483705"
     inkscape:cy="-38.099973"
     inkscape:document-units="px"
     inkscape:current-layer="g3360"
     showgrid="false"
     inkscape:window-width="1440"
     inkscape:window-height="775"
     inkscape:window-x="0"
     inkscape:window-y="1"
     inkscape:window-maximized="1"
     fit-margin-top="0"
     fit-margin-left="0"
     fit-margin-right="0"
     fit-margin-bottom="0" />
  <metadata
     id="metadata7">
    <rdf:RDF>
      <cc:Work
         rdf:about="">
        <dc:format>image/svg+xml</dc:format>
        <dc:type
           rdf:resource="http://purl.org/dc/dcmitype/StillImage" />
        <dc:title></dc:title>
      </cc:Work>
    </rdf:RDF>
  </metadata>
  <g
     inkscape:label="Layer 1"
     inkscape:groupmode="layer"
     id="layer1"
     transform="translate(-232.2473,-536.37692)">
    <g
       id="g3360"
       transform="translate(9.25,11.5)">
      <g
         id="g3364"
         transform="matrix(0.65491504,0,0,1.0044827,76.918749,-2.4399982)"
         style="fill:none">
        <path
           sodipodi:type="spiral"
           style="fill:none;fill-rule:evenodd;stroke:#000000;stroke-width:1px;stroke-linecap:butt;stroke-linejoin:miter;stroke-opacity:1"
           id="path3336"
           sodipodi:cx="125"
           sodipodi:cy="533.36218"
           sodipodi:expansion="1"
           sodipodi:revolution="1.1982194"
           sodipodi:radius="52.928493"
           sodipodi:argument="-18.511101"
           sodipodi:t0="0.59283489"
           d="m 127.79843,502.10936 c 20.78049,-2.74023 37.96209,15.16893 39.45354,35.03613 1.88998,25.17595 -18.663,46.23863 -42.94575,49.14064"
           transform="matrix(0,-0.8906273,-1.7300393,0,1237.8505,674.33955)" />
        <path
           sodipodi:nodetypes="ccc"
           style="fill:none;fill-rule:evenodd;stroke:#000000;stroke-width:1.77804852px;stroke-linecap:butt;stroke-linejoin:miter;stroke-opacity:1"
           d="m 363.74659,558.54106 c 5.5377,1.3784 5.36115,3.2513 5.77854,5.07277 0.42706,-2.86429 1.91874,-4.4479 3.82531,-5.53236"
           id="path3358"
           inkscape:connector-curvature="0" />
      </g>
      <path
         style="fill:none"
         d="m 327.50724,574.22345 c -0.17728,-1.32169 -0.8271,-2.1906 -2.11616,-2.82963 -0.87459,-0.43357 -0.99816,-0.59241 -0.87872,-1.12951 0.0764,-0.34375 0.16851,-0.66098 0.20459,-0.70494 0.12436,-0.15153 2.02323,0.91926 2.36901,1.3359 0.32184,0.3878 0.35944,0.38465 0.52821,-0.0442 0.31242,-0.79392 0.23292,-3.92906 -0.15623,-6.16059 -1.60109,-9.18131 -8.508,-17.15425 -19.43019,-22.42909 -11.24849,-5.43243 -24.67395,-6.66828 -37.675,-3.46808 -18.59003,4.57592 -33.15557,17.95632 -36.77583,33.78353 -0.44394,1.94081 -0.64657,2.4375 -0.99445,2.4375 -0.3855,0 -0.41089,-0.13929 -0.21575,-1.18378 2.46573,-13.19841 13.21609,-25.70247 27.68235,-32.19811 17.76024,-7.97471 38.64405,-6.80005 53.71168,3.02115 5.52648,3.6022 9.40635,7.64641 11.98365,12.49124 2.09361,3.93557 2.86661,7.01193 2.86661,11.40835 l 0,2.74475 0.73657,-1.0168 c 0.83411,-1.15146 1.11352,-1.25235 1.31669,-0.47543 0.0934,0.3571 -0.0585,0.7792 -0.4464,1.24012 -0.5774,0.68621 -1.20873,2.17307 -1.49928,3.53101 -0.0961,0.44912 -0.3074,0.6875 -0.60942,0.6875 -0.35338,0 -0.49522,-0.24528 -0.60193,-1.04086 z"
         id="path3368"
         inkscape:connector-curvature="0"
         transform="translate(-9.25,-11.5)" />
      <path
         style="fill:#ff0000"
         d="m 327.50724,574.22345 c -0.17728,-1.32169 -0.8271,-2.1906 -2.11616,-2.82963 -0.87459,-0.43357 -0.99816,-0.59241 -0.87872,-1.12951 0.0764,-0.34375 0.16851,-0.66098 0.20459,-0.70494 0.12436,-0.15153 2.02323,0.91926 2.36901,1.3359 0.32184,0.3878 0.35944,0.38465 0.52821,-0.0442 0.31242,-0.79392 0.23292,-3.92906 -0.15623,-6.16059 -1.60109,-9.18131 -8.508,-17.15425 -19.43019,-22.42909 -11.24849,-5.43243 -24.67395,-6.66828 -37.675,-3.46808 -18.59003,4.57592 -33.15557,17.95632 -36.77583,33.78353 -0.44394,1.94081 -0.64657,2.4375 -0.99445,2.4375 -0.3855,0 -0.41089,-0.13929 -0.21575,-1.18378 2.46573,-13.19841 13.21609,-25.70247 27.68235,-32.19811 17.76024,-7.97471 38.64405,-6.80005 53.71168,3.02115 5.52648,3.6022 9.40635,7.64641 11.98365,12.49124 2.09361,3.93557 2.86661,7.01193 2.86661,11.40835 l 0,2.74475 0.73657,-1.0168 c 0.83411,-1.15146 1.11352,-1.25235 1.31669,-0.47543 0.0934,0.3571 -0.0585,0.7792 -0.4464,1.24012 -0.5774,0.68621 -1.20873,2.17307 -1.49928,3.53101 -0.0961,0.44912 -0.3074,0.6875 -0.60942,0.6875 -0.35338,0 -0.49522,-0.24528 -0.60193,-1.04086 z"
         id="path3370"
         inkscape:connector-curvature="0"
         transform="translate(-9.25,-11.5)" />
    </g>
  </g>
</svg>
